<mxfile host="app.diagrams.net" modified="2024-02-22T10:33:29.926Z" agent="Mozilla/5.0 (Windows NT 10.0; Win64; x64) AppleWebKit/537.36 (KHTML, like Gecko) Chrome/121.0.0.0 Safari/537.36" etag="GppbEXSS_qpZVkaIdAaW" version="23.1.5" type="github">
  <diagram name="Page-1" id="L68cuUKPn2KH3CB8SEB8">
    <mxGraphModel dx="397" dy="246" grid="1" gridSize="10" guides="1" tooltips="1" connect="1" arrows="1" fold="1" page="1" pageScale="1" pageWidth="827" pageHeight="1169" math="0" shadow="0">
      <root>
        <mxCell id="0" />
        <mxCell id="1" parent="0" />
        <mxCell id="TXPbSJOs0MIl0hsXhkNW-32" value="" style="ellipse;whiteSpace=wrap;html=1;aspect=fixed;" parent="1" vertex="1">
          <mxGeometry x="414" y="160" width="190" height="190" as="geometry" />
        </mxCell>
        <mxCell id="TXPbSJOs0MIl0hsXhkNW-33" value="Parliament&lt;br&gt;management&lt;br&gt;system" style="text;strokeColor=none;align=center;fillColor=none;html=1;verticalAlign=middle;whiteSpace=wrap;rounded=0;" parent="1" vertex="1">
          <mxGeometry x="469" y="240" width="80" height="30" as="geometry" />
        </mxCell>
        <mxCell id="TXPbSJOs0MIl0hsXhkNW-34" value="&lt;font style=&quot;font-size: 15px;&quot;&gt;User&lt;/font&gt;" style="rounded=0;whiteSpace=wrap;html=1;" parent="1" vertex="1">
          <mxGeometry x="120" y="50" width="230" height="60" as="geometry" />
        </mxCell>
        <mxCell id="TXPbSJOs0MIl0hsXhkNW-35" value="" style="endArrow=none;html=1;rounded=0;exitX=0.014;exitY=0.424;exitDx=0;exitDy=0;exitPerimeter=0;" parent="1" source="TXPbSJOs0MIl0hsXhkNW-32" edge="1">
          <mxGeometry width="50" height="50" relative="1" as="geometry">
            <mxPoint x="410" y="240" as="sourcePoint" />
            <mxPoint x="310" y="110" as="targetPoint" />
            <Array as="points">
              <mxPoint x="310" y="240" />
            </Array>
          </mxGeometry>
        </mxCell>
        <mxCell id="TXPbSJOs0MIl0hsXhkNW-36" value="" style="endArrow=none;html=1;rounded=0;" parent="1" edge="1">
          <mxGeometry width="50" height="50" relative="1" as="geometry">
            <mxPoint x="280" y="260" as="sourcePoint" />
            <mxPoint x="280" y="110" as="targetPoint" />
            <Array as="points">
              <mxPoint x="280" y="180" />
            </Array>
          </mxGeometry>
        </mxCell>
        <mxCell id="TXPbSJOs0MIl0hsXhkNW-37" value="" style="endArrow=none;html=1;rounded=0;entryX=0.006;entryY=0.527;entryDx=0;entryDy=0;entryPerimeter=0;" parent="1" target="TXPbSJOs0MIl0hsXhkNW-32" edge="1">
          <mxGeometry width="50" height="50" relative="1" as="geometry">
            <mxPoint x="280" y="260" as="sourcePoint" />
            <mxPoint x="390" y="240" as="targetPoint" />
          </mxGeometry>
        </mxCell>
        <mxCell id="TXPbSJOs0MIl0hsXhkNW-38" value="" style="endArrow=none;html=1;rounded=0;exitX=-0.004;exitY=0.621;exitDx=0;exitDy=0;exitPerimeter=0;" parent="1" source="TXPbSJOs0MIl0hsXhkNW-32" edge="1">
          <mxGeometry width="50" height="50" relative="1" as="geometry">
            <mxPoint x="330" y="277" as="sourcePoint" />
            <mxPoint x="250" y="110" as="targetPoint" />
            <Array as="points">
              <mxPoint x="250" y="277" />
            </Array>
          </mxGeometry>
        </mxCell>
        <mxCell id="TXPbSJOs0MIl0hsXhkNW-39" value="" style="endArrow=none;html=1;rounded=0;exitX=0.035;exitY=0.73;exitDx=0;exitDy=0;exitPerimeter=0;" parent="1" source="TXPbSJOs0MIl0hsXhkNW-32" edge="1">
          <mxGeometry width="50" height="50" relative="1" as="geometry">
            <mxPoint x="390" y="290.72" as="sourcePoint" />
            <mxPoint x="222.02" y="110" as="targetPoint" />
            <Array as="points">
              <mxPoint x="222" y="300" />
              <mxPoint x="222.02" y="260" />
            </Array>
          </mxGeometry>
        </mxCell>
        <mxCell id="TXPbSJOs0MIl0hsXhkNW-40" value="" style="endArrow=none;html=1;rounded=0;exitX=0.109;exitY=0.839;exitDx=0;exitDy=0;exitPerimeter=0;" parent="1" source="TXPbSJOs0MIl0hsXhkNW-32" edge="1">
          <mxGeometry width="50" height="50" relative="1" as="geometry">
            <mxPoint x="390.00000000000006" y="310.6700000000001" as="sourcePoint" />
            <mxPoint x="190.05" y="110" as="targetPoint" />
            <Array as="points">
              <mxPoint x="190" y="320" />
            </Array>
          </mxGeometry>
        </mxCell>
        <mxCell id="TXPbSJOs0MIl0hsXhkNW-41" value="" style="endArrow=none;html=1;rounded=0;exitX=0.263;exitY=0.954;exitDx=0;exitDy=0;exitPerimeter=0;" parent="1" source="TXPbSJOs0MIl0hsXhkNW-32" edge="1">
          <mxGeometry width="50" height="50" relative="1" as="geometry">
            <mxPoint x="300" y="311" as="sourcePoint" />
            <mxPoint x="160" y="110" as="targetPoint" />
            <Array as="points">
              <mxPoint x="160" y="341" />
            </Array>
          </mxGeometry>
        </mxCell>
        <mxCell id="TXPbSJOs0MIl0hsXhkNW-42" value="" style="endArrow=classic;startArrow=classic;html=1;rounded=0;" parent="1" edge="1">
          <mxGeometry width="50" height="50" relative="1" as="geometry">
            <mxPoint x="700" y="480" as="sourcePoint" />
            <mxPoint x="960" y="480" as="targetPoint" />
          </mxGeometry>
        </mxCell>
        <mxCell id="TXPbSJOs0MIl0hsXhkNW-43" value="" style="endArrow=classic;startArrow=classic;html=1;rounded=0;" parent="1" edge="1">
          <mxGeometry width="50" height="50" relative="1" as="geometry">
            <mxPoint x="700" y="550" as="sourcePoint" />
            <mxPoint x="960" y="550" as="targetPoint" />
          </mxGeometry>
        </mxCell>
        <mxCell id="TXPbSJOs0MIl0hsXhkNW-44" value="DB" style="text;html=1;align=center;verticalAlign=middle;whiteSpace=wrap;rounded=0;" parent="1" vertex="1">
          <mxGeometry x="760" y="500" width="140" height="30" as="geometry" />
        </mxCell>
        <mxCell id="TXPbSJOs0MIl0hsXhkNW-46" value="" style="endArrow=none;html=1;rounded=0;" parent="1" edge="1">
          <mxGeometry width="50" height="50" relative="1" as="geometry">
            <mxPoint x="810" y="480" as="sourcePoint" />
            <mxPoint x="604" y="279" as="targetPoint" />
            <Array as="points">
              <mxPoint x="810" y="279" />
            </Array>
          </mxGeometry>
        </mxCell>
        <mxCell id="TXPbSJOs0MIl0hsXhkNW-47" value="" style="endArrow=none;html=1;rounded=0;entryX=0.992;entryY=0.42;entryDx=0;entryDy=0;entryPerimeter=0;" parent="1" target="TXPbSJOs0MIl0hsXhkNW-32" edge="1">
          <mxGeometry width="50" height="50" relative="1" as="geometry">
            <mxPoint x="860" y="480" as="sourcePoint" />
            <mxPoint x="610" y="240" as="targetPoint" />
            <Array as="points">
              <mxPoint x="860" y="240" />
            </Array>
          </mxGeometry>
        </mxCell>
        <mxCell id="TXPbSJOs0MIl0hsXhkNW-48" value="" style="endArrow=none;html=1;rounded=0;" parent="1" edge="1">
          <mxGeometry width="50" height="50" relative="1" as="geometry">
            <mxPoint x="900" y="480" as="sourcePoint" />
            <mxPoint x="590" y="200" as="targetPoint" />
            <Array as="points">
              <mxPoint x="900" y="200" />
            </Array>
          </mxGeometry>
        </mxCell>
        <mxCell id="TXPbSJOs0MIl0hsXhkNW-49" value="" style="endArrow=classic;html=1;rounded=0;entryX=0.007;entryY=0.421;entryDx=0;entryDy=0;entryPerimeter=0;" parent="1" target="TXPbSJOs0MIl0hsXhkNW-32" edge="1">
          <mxGeometry width="50" height="50" relative="1" as="geometry">
            <mxPoint x="310" y="110" as="sourcePoint" />
            <mxPoint x="410" y="240" as="targetPoint" />
            <Array as="points">
              <mxPoint x="310" y="240" />
            </Array>
          </mxGeometry>
        </mxCell>
        <mxCell id="TXPbSJOs0MIl0hsXhkNW-50" value="" style="endArrow=classic;html=1;rounded=0;entryX=0.012;entryY=0.531;entryDx=0;entryDy=0;entryPerimeter=0;" parent="1" target="TXPbSJOs0MIl0hsXhkNW-32" edge="1">
          <mxGeometry width="50" height="50" relative="1" as="geometry">
            <mxPoint x="280" y="110" as="sourcePoint" />
            <mxPoint x="410" y="260" as="targetPoint" />
            <Array as="points">
              <mxPoint x="280" y="260" />
            </Array>
          </mxGeometry>
        </mxCell>
        <mxCell id="TXPbSJOs0MIl0hsXhkNW-51" value="" style="endArrow=classic;html=1;rounded=0;entryX=0.006;entryY=0.621;entryDx=0;entryDy=0;entryPerimeter=0;" parent="1" target="TXPbSJOs0MIl0hsXhkNW-32" edge="1">
          <mxGeometry width="50" height="50" relative="1" as="geometry">
            <mxPoint x="250" y="110" as="sourcePoint" />
            <mxPoint x="250" y="280" as="targetPoint" />
            <Array as="points">
              <mxPoint x="250" y="278" />
            </Array>
          </mxGeometry>
        </mxCell>
        <mxCell id="TXPbSJOs0MIl0hsXhkNW-52" value="" style="endArrow=classic;html=1;rounded=0;exitX=0.441;exitY=1.071;exitDx=0;exitDy=0;exitPerimeter=0;" parent="1" source="TXPbSJOs0MIl0hsXhkNW-34" edge="1">
          <mxGeometry width="50" height="50" relative="1" as="geometry">
            <mxPoint x="220" y="110" as="sourcePoint" />
            <mxPoint x="420" y="300" as="targetPoint" />
            <Array as="points">
              <mxPoint x="221" y="300" />
            </Array>
          </mxGeometry>
        </mxCell>
        <mxCell id="TXPbSJOs0MIl0hsXhkNW-53" value="" style="endArrow=classic;html=1;rounded=0;exitX=0.307;exitY=1.053;exitDx=0;exitDy=0;exitPerimeter=0;entryX=0.099;entryY=0.834;entryDx=0;entryDy=0;entryPerimeter=0;" parent="1" source="TXPbSJOs0MIl0hsXhkNW-34" target="TXPbSJOs0MIl0hsXhkNW-32" edge="1">
          <mxGeometry width="50" height="50" relative="1" as="geometry">
            <mxPoint x="410" y="290" as="sourcePoint" />
            <mxPoint x="460" y="240" as="targetPoint" />
            <Array as="points">
              <mxPoint x="191" y="320" />
            </Array>
          </mxGeometry>
        </mxCell>
        <mxCell id="TXPbSJOs0MIl0hsXhkNW-54" value="" style="endArrow=classic;html=1;rounded=0;exitX=0.175;exitY=1.098;exitDx=0;exitDy=0;exitPerimeter=0;" parent="1" source="TXPbSJOs0MIl0hsXhkNW-34" edge="1">
          <mxGeometry width="50" height="50" relative="1" as="geometry">
            <mxPoint x="410" y="290" as="sourcePoint" />
            <mxPoint x="460" y="340" as="targetPoint" />
            <Array as="points">
              <mxPoint x="160" y="340" />
            </Array>
          </mxGeometry>
        </mxCell>
        <mxCell id="TXPbSJOs0MIl0hsXhkNW-56" value="" style="endArrow=classic;html=1;rounded=0;entryX=0.988;entryY=0.632;entryDx=0;entryDy=0;entryPerimeter=0;" parent="1" target="TXPbSJOs0MIl0hsXhkNW-32" edge="1">
          <mxGeometry width="50" height="50" relative="1" as="geometry">
            <mxPoint x="810" y="480" as="sourcePoint" />
            <mxPoint x="770" y="290" as="targetPoint" />
            <Array as="points">
              <mxPoint x="810" y="280" />
            </Array>
          </mxGeometry>
        </mxCell>
        <mxCell id="TXPbSJOs0MIl0hsXhkNW-57" value="" style="endArrow=classic;html=1;rounded=0;" parent="1" edge="1">
          <mxGeometry width="50" height="50" relative="1" as="geometry">
            <mxPoint x="860" y="480" as="sourcePoint" />
            <mxPoint x="600" y="240" as="targetPoint" />
            <Array as="points">
              <mxPoint x="860" y="240" />
            </Array>
          </mxGeometry>
        </mxCell>
        <mxCell id="TXPbSJOs0MIl0hsXhkNW-58" value="" style="endArrow=classic;html=1;rounded=0;" parent="1" edge="1">
          <mxGeometry width="50" height="50" relative="1" as="geometry">
            <mxPoint x="900" y="480" as="sourcePoint" />
            <mxPoint x="590" y="200" as="targetPoint" />
            <Array as="points">
              <mxPoint x="900" y="200" />
            </Array>
          </mxGeometry>
        </mxCell>
        <mxCell id="TXPbSJOs0MIl0hsXhkNW-59" value="Member details" style="text;html=1;align=center;verticalAlign=middle;whiteSpace=wrap;rounded=0;" parent="1" vertex="1">
          <mxGeometry x="311" y="220" width="100" height="30" as="geometry" />
        </mxCell>
        <mxCell id="TXPbSJOs0MIl0hsXhkNW-60" value="Participation requests" style="text;html=1;align=center;verticalAlign=middle;whiteSpace=wrap;rounded=0;" parent="1" vertex="1">
          <mxGeometry x="290" y="240" width="121" height="30" as="geometry" />
        </mxCell>
        <mxCell id="TXPbSJOs0MIl0hsXhkNW-61" value="Legislative suggestions" style="text;html=1;align=center;verticalAlign=middle;whiteSpace=wrap;rounded=0;" parent="1" vertex="1">
          <mxGeometry x="260" y="260" width="130" height="30" as="geometry" />
        </mxCell>
        <mxCell id="TXPbSJOs0MIl0hsXhkNW-62" value="Course registration" style="text;html=1;align=center;verticalAlign=middle;whiteSpace=wrap;rounded=0;" parent="1" vertex="1">
          <mxGeometry x="250" y="280" width="120" height="30" as="geometry" />
        </mxCell>
        <mxCell id="TXPbSJOs0MIl0hsXhkNW-63" value="Committee assignments" style="text;html=1;align=center;verticalAlign=middle;whiteSpace=wrap;rounded=0;" parent="1" vertex="1">
          <mxGeometry x="230" y="300" width="150" height="30" as="geometry" />
        </mxCell>
        <mxCell id="TXPbSJOs0MIl0hsXhkNW-64" value="View documents" style="text;html=1;align=center;verticalAlign=middle;whiteSpace=wrap;rounded=0;" parent="1" vertex="1">
          <mxGeometry x="250" y="320" width="116" height="30" as="geometry" />
        </mxCell>
        <mxCell id="TXPbSJOs0MIl0hsXhkNW-65" value="Session schedules" style="text;html=1;align=center;verticalAlign=middle;whiteSpace=wrap;rounded=0;" parent="1" vertex="1">
          <mxGeometry x="635" y="220" width="125" height="30" as="geometry" />
        </mxCell>
        <mxCell id="TXPbSJOs0MIl0hsXhkNW-66" value="Legislative documents" style="text;html=1;align=center;verticalAlign=middle;whiteSpace=wrap;rounded=0;" parent="1" vertex="1">
          <mxGeometry x="640" y="260" width="130" height="30" as="geometry" />
        </mxCell>
        <mxCell id="TXPbSJOs0MIl0hsXhkNW-67" value="Voting records and results" style="text;html=1;align=center;verticalAlign=middle;whiteSpace=wrap;rounded=0;" parent="1" vertex="1">
          <mxGeometry x="625" y="180" width="145" height="30" as="geometry" />
        </mxCell>
      </root>
    </mxGraphModel>
  </diagram>
</mxfile>
